<?xml version="1.0" encoding="UTF-8" standalone="no"?>
<!-- Created with Inkscape (http://www.inkscape.org/) -->
<svg
   xmlns:dc="http://purl.org/dc/elements/1.1/"
   xmlns:cc="http://web.resource.org/cc/"
   xmlns:rdf="http://www.w3.org/1999/02/22-rdf-syntax-ns#"
   xmlns:svg="http://www.w3.org/2000/svg"
   xmlns="http://www.w3.org/2000/svg"
   xmlns:xlink="http://www.w3.org/1999/xlink"
   xmlns:sodipodi="http://sodipodi.sourceforge.net/DTD/sodipodi-0.dtd"
   xmlns:inkscape="http://www.inkscape.org/namespaces/inkscape"
   width="64px"
   height="64px"
   id="svg2"
   sodipodi:version="0.32"
   inkscape:version="0.44"
   sodipodi:docname="icon-2006-12-02-plain.svg"
   sodipodi:docbase="/home/rob/Documents/projekte/software/mmp/gfx">
  <defs
     id="defs4">
    <radialGradient
       gradientUnits="userSpaceOnUse"
       gradientTransform="matrix(1,0,0,1.048472,0,-26.79201)"
       r="197.72095"
       fy="552.73358"
       fx="1167.1179"
       cy="552.73358"
       cx="1167.1179"
       id="radialGradient2839"
       xlink:href="#linearGradient2829"
       inkscape:collect="always" />
    <linearGradient
       gradientUnits="userSpaceOnUse"
       y2="258.89355"
       x2="900.50342"
       y1="826.41333"
       x1="1419.1749"
       id="linearGradient2787"
       xlink:href="#linearGradient2777"
       inkscape:collect="always" />
    <linearGradient
       id="linearGradient2777">
      <stop
         id="stop2779"
         offset="0"
         style="stop-color:#086fca;stop-opacity:1" />
      <stop
         id="stop2781"
         offset="1"
         style="stop-color:#0c0c0c;stop-opacity:0" />
    </linearGradient>
    <linearGradient
       id="linearGradient2829">
      <stop
         id="stop2831"
         offset="0"
         style="stop-color:white;stop-opacity:0;" />
      <stop
         id="stop2833"
         offset="1"
         style="stop-color:white;stop-opacity:1;" />
    </linearGradient>
  </defs>
  <sodipodi:namedview
     id="base"
     pagecolor="#ffffff"
     bordercolor="#666666"
     borderopacity="1.0"
     inkscape:pageopacity="0.0"
     inkscape:pageshadow="2"
     inkscape:zoom="5.3590883"
     inkscape:cx="73.305258"
     inkscape:cy="32.249978"
     inkscape:current-layer="layer1"
     showgrid="true"
     inkscape:document-units="px"
     inkscape:grid-bbox="true"
     inkscape:window-width="926"
     inkscape:window-height="615"
     inkscape:window-x="55"
     inkscape:window-y="341" />
  <metadata
     id="metadata7">
    <rdf:RDF>
      <cc:Work
         rdf:about="">
        <dc:format>image/svg+xml</dc:format>
        <dc:type
           rdf:resource="http://purl.org/dc/dcmitype/StillImage" />
      </cc:Work>
    </rdf:RDF>
  </metadata>
  <g
     id="layer1"
     inkscape:label="Layer 1"
     inkscape:groupmode="layer">
    <path
       style="fill:white;fill-opacity:1;fill-rule:nonzero;stroke:gray;stroke-width:0.9950937;stroke-linecap:round;stroke-linejoin:round;stroke-miterlimit:4;stroke-dasharray:none;stroke-opacity:1"
       d="M 6.6875,19.84375 C 1.4463227,20.977742 5.0628098,28.548535 4,32.25 C 4.9063959,35.834157 1.5067042,43.796209 7.15625,44.1875 C 24.268934,43.926742 41.538364,44.688604 58.5625,43.84375 C 61.950544,40.054297 59.024601,33.526211 60,28.75 C 60.215542,25.41633 61.052446,18.849703 55.84375,19.8125 C 39.459124,19.833695 23.068405,19.770349 6.6875,19.84375 z "
       id="rect2967" />
    <path
       sodipodi:type="inkscape:offset"
       inkscape:radius="0"
       inkscape:original="M 7.15625 21.8125 C 6.5202727 21.8125 6 22.015846 6 22.25 L 6 41.75 C 6 41.984154 6.5202726 42.187498 7.15625 42.1875 L 56.84375 42.1875 C 57.479727 42.1875 58.000002 41.984156 58 41.75 L 58 22.25 C 58 22.015846 57.479728 21.8125 56.84375 21.8125 L 7.15625 21.8125 z "
       xlink:href="#rect2760"
       style="fill:black;fill-opacity:1;fill-rule:nonzero;stroke:black;stroke-width:0.9950937;stroke-linecap:round;stroke-linejoin:round;stroke-miterlimit:4;stroke-dasharray:none;stroke-opacity:1"
       id="path2944"
       inkscape:href="#rect2760"
       d="M 7.15625,21.8125 C 6.5202727,21.8125 6,22.015846 6,22.25 L 6,41.75 C 6,41.984154 6.5202726,42.187498 7.15625,42.1875 L 56.84375,42.1875 C 57.479727,42.1875 58.000002,41.984156 58,41.75 L 58,22.25 C 58,22.015846 57.479728,21.8125 56.84375,21.8125 L 7.15625,21.8125 z " />
    <rect
       style="fill:black;fill-opacity:1;fill-rule:nonzero;stroke:black;stroke-width:0.9950937;stroke-linecap:round;stroke-linejoin:round;stroke-miterlimit:4;stroke-dasharray:none;stroke-opacity:1"
       id="rect2760"
       width="52.010227"
       height="20.356733"
       x="5.9948864"
       y="21.821632"
       rx="1.1479734"
       ry="0.42266098" />
    <path
       style="fill:white;fill-opacity:1;fill-rule:nonzero;stroke:white;stroke-width:1.62024999;stroke-linecap:round;stroke-linejoin:round;stroke-miterlimit:4;stroke-dasharray:none;stroke-opacity:1"
       d="M 45.810125,37.401081 L 53.802833,31.941478 L 45.981465,26.598918 L 45.810125,37.401081 z "
       id="rect2766" />
    <path
       style="font-size:12px;font-style:normal;font-variant:normal;font-weight:bold;font-stretch:normal;text-align:start;line-height:125%;writing-mode:lr-tb;text-anchor:start;fill:white;fill-opacity:1;stroke:none;stroke-width:1pt;stroke-linecap:butt;stroke-linejoin:miter;stroke-opacity:1;font-family:Bitstream Vera Sans"
       d="M 16.826013,30.242455 C 17.09163,29.83621 17.406083,29.527617 17.769372,29.316673 C 18.136551,29.101836 18.538894,28.994414 18.976403,28.994408 C 19.730299,28.994414 20.304518,29.226836 20.699059,29.691673 C 21.093579,30.156523 21.290845,30.832303 21.290856,31.719017 L 21.290856,35.715111 L 19.181481,35.715111 L 19.181481,32.293236 C 19.185378,32.242458 19.187331,32.189724 19.187341,32.135033 C 19.191238,32.080349 19.193191,32.002224 19.1932,31.900658 C 19.193191,31.435818 19.124831,31.099881 18.988122,30.892845 C 18.851394,30.681913 18.630691,30.576444 18.326013,30.576439 C 17.927567,30.576444 17.618973,30.740506 17.400231,31.068626 C 17.18538,31.396756 17.074052,31.871365 17.066247,32.492455 L 17.066247,35.715111 L 14.956872,35.715111 L 14.956872,32.293236 C 14.956867,31.566677 14.894367,31.099881 14.769372,30.892845 C 14.644367,30.681913 14.421711,30.576444 14.101403,30.576439 C 13.699056,30.576444 13.388509,30.74246 13.169763,31.074486 C 12.951009,31.402615 12.841635,31.873318 12.841638,32.486595 L 12.841638,35.715111 L 10.732263,35.715111 L 10.732263,29.152611 L 12.841638,29.152611 L 12.841638,30.113548 C 13.099447,29.742461 13.394368,29.463164 13.726403,29.275658 C 14.062336,29.088164 14.431477,28.994414 14.833825,28.994408 C 15.286945,28.994414 15.687335,29.103789 16.034997,29.322533 C 16.382647,29.541289 16.646318,29.847929 16.826013,30.242455 M 29.341638,30.242455 C 29.607255,29.83621 29.921708,29.527617 30.284997,29.316673 C 30.652176,29.101836 31.054519,28.994414 31.492028,28.994408 C 32.245924,28.994414 32.820143,29.226836 33.214684,29.691673 C 33.609204,30.156523 33.80647,30.832303 33.806481,31.719017 L 33.806481,35.715111 L 31.697106,35.715111 L 31.697106,32.293236 C 31.701003,32.242458 31.702956,32.189724 31.702966,32.135033 C 31.706863,32.080349 31.708816,32.002224 31.708825,31.900658 C 31.708816,31.435818 31.640456,31.099881 31.503747,30.892845 C 31.367019,30.681913 31.146316,30.576444 30.841638,30.576439 C 30.443192,30.576444 30.134598,30.740506 29.915856,31.068626 C 29.701005,31.396756 29.589677,31.871365 29.581872,32.492455 L 29.581872,35.715111 L 27.472497,35.715111 L 27.472497,32.293236 C 27.472492,31.566677 27.409992,31.099881 27.284997,30.892845 C 27.159992,30.681913 26.937336,30.576444 26.617028,30.576439 C 26.214681,30.576444 25.904134,30.74246 25.685388,31.074486 C 25.466634,31.402615 25.35726,31.873318 25.357263,32.486595 L 25.357263,35.715111 L 23.247888,35.715111 L 23.247888,29.152611 L 25.357263,29.152611 L 25.357263,30.113548 C 25.615072,29.742461 25.909993,29.463164 26.242028,29.275658 C 26.577961,29.088164 26.947102,28.994414 27.34945,28.994408 C 27.80257,28.994414 28.20296,29.103789 28.550622,29.322533 C 28.898272,29.541289 29.161943,29.847929 29.341638,30.242455 M 37.872888,34.765892 L 37.872888,38.211205 L 35.775231,38.211205 L 35.775231,29.152611 L 37.872888,29.152611 L 37.872888,30.113548 C 38.161947,29.730742 38.482259,29.449492 38.833825,29.269798 C 39.185383,29.086211 39.58968,28.994414 40.046716,28.994408 C 40.855303,28.994414 41.519365,29.31668 42.038903,29.961205 C 42.558427,30.601835 42.818192,31.428006 42.8182,32.43972 C 42.818192,33.451441 42.558427,34.279565 42.038903,34.924095 C 41.519365,35.56472 40.855303,35.885032 40.046716,35.885033 C 39.58968,35.885032 39.185383,35.795189 38.833825,35.615501 C 38.482259,35.431908 38.161947,35.148705 37.872888,34.765892 M 39.267419,30.517845 C 38.818196,30.51785 38.472493,30.683866 38.230309,31.015892 C 37.992025,31.344021 37.872885,31.81863 37.872888,32.43972 C 37.872885,33.060817 37.992025,33.537379 38.230309,33.869408 C 38.472493,34.197534 38.818196,34.361597 39.267419,34.361595 C 39.716633,34.361597 40.058429,34.197534 40.292809,33.869408 C 40.531085,33.541285 40.650225,33.064723 40.650231,32.43972 C 40.650225,31.814724 40.531085,31.338162 40.292809,31.010033 C 40.058429,30.681913 39.716633,30.51785 39.267419,30.517845"
       id="text1903" />
  </g>
</svg>
