<?xml version="1.0" standalone="no"?>
<!DOCTYPE svg PUBLIC "-//W3C//DTD SVG 20010904//EN"
"http://www.w3.org/TR/2001/REC-SVG-20010904/DTD/svg10.dtd">
<svg
   style="fill:#000000;fill-opacity:0.5;stroke:none"
   xmlns="http://www.w3.org/2000/svg"
   xmlns:sodipodi="http://sodipodi.sourceforge.net/DTD/sodipodi-0.dtd"
   xmlns:xlink="http://www.w3.org/1999/xlink"
   width="595.275591"
   height="841.889764"
   id="svg1"
   sodipodi:docbase="/usr/home/rob/devel/mp3/"
   sodipodi:docname="/usr/home/rob/devel/mp3/logo.svg">  <defs
     id="defs3">
  </defs>
  <sodipodi:namedview
     id="base"
     showgrid="true"
     snaptogrid="true"
     gridoriginx="0.000000"
     gridoriginy="0.000000"
     gridspacingx="2.834646"
     gridspacingy="2.834646"
     gridtolerance="5.000000"
     gridcolor="#3f3fff"
     gridopacity="0.247059"
     guidetolerance="5.000000"
     guidecolor="#0000ff"
     guideopacity="0.498039"
     guidehicolor="#ff0000"
     guidehiopacity="0.498039"
     snaptoguides="true">
  </sodipodi:namedview>
  <path
     style="stroke:none; fill-rule:nonzero; fill:#7f7f7f; fill-opacity:100%; stroke-opacity:100%; stroke-width:1px; stroke-linejoin:miter; stroke-linecap:butt; "
     id="path4"
     d="M 209.764 413.858 C 209.755 415.58 201.609 417.473 204.67 416.526 C 205.797 416.177 202.307 416.74 201.167 417.046 C 194.936 418.718 189.016 421.775 183.619 425.256 C 169.894 434.109 159.487 445.993 149.757 458.933 C 125.917 497.397 124.24 546.555 181.264 513.529 C 206.231 496.139 247.469 459.826 237.039 424.387 C 231.96 413.972 221.311 412.59 212.058 418.751 C 209.317 420.948 207.485 426.257 206.923 424.833 C 206.006 423.416 204.134 422.434 202.591 423.497 C 199.822 425.841 201.508 429.926 203.803 431.863 C 206.794 433.625 210.143 433.292 212.398 430.588 C 214.689 427.278 213.73 423.414 210.652 420.984 L 202.94 432.551 C 199.596 429.925 196.016 423.066 198.425 419.528 C 201.146 416.209 208.086 418.414 211.78 420.52 C 216.23 424.165 215.772 429.709 211.948 433.587 C 206.822 437.98 199.962 437.585 195.549 432.387 C 189.956 422.855 190.794 413.686 198.425 408.189 C 215.401 398.01 241.403 402.475 248.666 421.636 C 257.047 462.676 215.37 500.031 186.016 521.347 C 117.581 563.616 111.936 489.732 142.706 453.804 C 147.402 446.307 209.624 386.719 209.764 413.858 z "
     sodipodi:nodetypes="ccccccccccccccccccccccc"
     transform="matrix(1 0 0 1 -2.97004 4.69399)">
  </path>
  <path
     style="stroke:none; fill-rule:nonzero; fill:#7f7f7f; fill-opacity:100%; stroke-opacity:100%; stroke-width:1px; stroke-linejoin:miter; stroke-linecap:butt; "
     id="path5"
     d="M 214.944 143.68 C 217.273 143.686 219.603 143.62 221.93 143.698 C 224.24 143.775 221.426 148.293 221.269 150.599 C 220.911 155.87 220.692 161.143 220.639 166.428 C 220.477 182.632 220.947 198.852 221.331 215.05 C 223.266 281.065 227.256 347.072 231.061 413.002 C 240.945 428.031 243.78 436.535 238.11 459.213 C 238.146 459.638 219.474 476.157 218.268 476.22 C 204.767 476.924 222.107 483.434 221.769 477.686 C 221.719 475.716 221.657 473.748 221.587 471.779 L 221.102 470.551 C 221.276 472.306 223.644 471.647 223.937 473.386 C 225.616 477.867 218.268 473.386 222.421 475.476 C 222.017 475.516 223.034 466.86 223.143 459.167 C 223.359 443.889 223.095 428.611 222.807 413.337 C 221.186 347.265 216.696 281.356 212.704 215.399 C 211.757 199.164 210.835 182.926 209.732 166.701 C 209.257 159.722 208.907 152.708 208.231 145.744 C 208.165 145.059 207.271 143.721 207.959 143.698 C 210.286 143.62 212.616 143.686 214.944 143.68 z "
     sodipodi:nodetypes="cccccccccccccccccccc">
  </path>
  <path
     style="stroke:none; fill-rule:nonzero; fill:#7f7f7f; fill-opacity:100%; stroke-opacity:100%; stroke-width:1px; stroke-linejoin:miter; stroke-linecap:butt; "
     id="path7"
     d="M 211.633 141.732 C 215.433 141.14 216.365 139.209 222.571 143.259 C 235.276 155.905 271.633 175.828 285.868 184.051 C 325.508 206.424 365.748 227.436 407.031 246.593 C 415.279 251.206 411.543 261.447 402.175 260.549 C 376 258.041 348.213 246.31 323.209 238.754 C 286.745 227.426 268.661 224.673 232.441 212.598 C 214.293 206.571 206.935 184.083 223.937 189.921 C 235.418 192.957 229.2 193.482 234.742 195.351 C 242.696 198.089 235.663 210.299 228.349 207.802 C 227.882 207.643 227.415 207.484 226.948 207.325 L 231.675 194.378 C 232.07 194.53 232.467 194.675 232.866 194.816 C 237.615 196.452 231.472 209.096 229.588 208.036 C 224.605 205.594 226.35 200.176 221.102 198.425 C 223.937 192.756 214.086 182.958 229.606 189.921 C 264.399 204.919 289.648 218.946 325.835 230.079 C 346.603 236.2 367.557 242.101 388.87 246.031 C 393.494 246.884 397.98 247.308 402.632 247.751 C 405.879 248.059 402.852 259.921 400.821 257.368 C 364.112 231.684 321.197 212.357 282.042 190.735 C 279.407 189.284 187.679 144.567 211.633 141.732 z "
     sodipodi:nodetypes="cccccccccccccccccccccc">
  </path>
  <path
     style="stroke:none; fill-rule:nonzero; fill:#7f7f7f; fill-opacity:100%; stroke-opacity:100%; stroke-width:1px; stroke-linejoin:miter; stroke-linecap:butt; "
     id="path9"
     d="M 133.959 748.662 C 133.572 748.658 135.72 742.968 135.78 742.78 C 137.008 738.987 137.944 735.102 138.831 731.218 C 141.577 719.207 143.645 707.062 145.673 694.913 C 156.006 629.917 170.626 653.558 183.564 701.009 C 193.101 737.965 202.03 775.49 207.134 813.36 C 208.301 823.57 210.165 831.206 193.999 822.668 C 193.073 822.179 194.176 820.579 194.332 819.544 C 196.911 802.456 201.371 785.498 204.619 768.521 C 208.868 745.756 218.992 649.7 232.95 637.094 C 257.34 635.173 263.703 700.05 265.939 718.667 C 267.509 734.409 265.885 753.776 271.529 768.73 C 272.096 770.234 266.791 769.367 266.804 767.759 C 275.083 753.825 272.535 724.061 287.666 716.658 C 293.821 717.196 296.7 718.986 299.531 724.499 C 305.262 735.657 298.176 728.958 299.022 727.594 C 316.196 700.054 319.674 751.928 327.194 750.415 C 327.008 744.465 339.38 728.2 341.513 721.407 C 349.246 696.79 352.552 670.959 355.22 645.386 C 356.502 630.267 357.534 615.144 357.465 599.962 C 357.437 593.616 357.35 587.184 356.385 580.899 C 356.301 580.35 355.552 579.256 356.107 579.255 C 374.655 579.229 369.434 584.888 369.527 599.325 C 370.58 668.163 373.192 737.02 377.959 805.702 C 379.758 829.851 379.184 857.035 385.965 880.571 C 386.891 882.951 381.273 878.657 375.923 881.603 C 373.852 882.743 377.196 877.045 377.688 874.732 C 378.513 870.852 379.479 865.705 380.139 861.896 C 381.83 852.13 383.187 842.322 384.522 832.503 C 390.801 781.693 395.044 730.411 395.798 679.199 C 395.809 673.692 389.589 661.58 394.981 662.698 C 399.317 663.597 407.714 659.78 408.183 664.184 C 408.904 670.968 406.572 679.724 406.359 686.667 C 406.151 701.878 406.687 717.072 407.948 732.234 C 408.388 737.524 408.74 742.967 410.052 748.135 C 410.351 749.313 414.218 755.164 412.183 752.008 C 408.974 750.566 428.654 726.679 435.275 722.74 C 444.984 718.445 454.932 721.467 461.452 729.679 C 466.813 737.624 465.023 742.353 464.737 742.691 C 458.565 747.786 459.91 747.156 457.09 741.4 C 455.167 738.363 445.04 732.972 441.585 734.026 C 426.745 740.978 426.352 764.247 407.648 764.227 C 389.045 753.62 395.427 705.056 394.954 686.577 C 394.933 685.137 393.76 659.143 395.51 659.004 C 413.869 657.55 407.994 667.451 406.883 679.771 C 402.28 730.999 397.802 782.237 393.324 833.476 C 392.708 840.438 392.028 882.998 387.932 887.877 C 381.2 895.897 374.951 891.039 373.095 883.484 C 368.424 858.483 370.498 831.351 369.827 806.095 C 367.866 737.415 366.55 668.364 359.324 599.995 C 357.286 584.093 351.692 583.835 369.638 581.311 C 370.409 581.202 368.856 582.708 368.779 583.483 C 368.223 589.059 368.226 594.705 367.938 600.296 C 367.145 615.694 365.678 631.029 364.044 646.356 C 361.321 669.279 354.49 763.176 322.242 761.935 C 310.964 755.811 310.071 744.556 305.14 733.808 C 304.438 732.278 311.11 732.783 310.176 734.182 C 299.125 753.031 284.577 730.276 291.158 729.52 C 294.448 726.808 288.357 739.327 287.342 743.661 C 284.801 754.501 282.159 765.465 277.082 775.431 C 254.112 803.212 255.719 726.705 255.121 719.905 C 253.319 703.832 250.811 687.805 246.327 672.236 C 242.566 659.175 242.057 651.092 238.022 650.692 C 232.353 648.76 227.969 686.191 227.704 687.584 C 222.505 714.982 217.814 742.469 213.481 770.017 C 211.629 782.251 209.691 794.482 208.324 806.782 C 207.765 811.815 207.648 820.962 207.536 820.951 C 191.429 819.292 194.986 824.717 194.968 814.428 C 193.452 777.098 184.556 739.421 174.458 703.625 C 171.857 695.253 169.288 686.876 165.831 678.805 C 164.141 674.858 156.932 670.76 159.7 667.478 C 166.649 659.242 156.74 690.082 155.727 696.507 C 153.83 708.774 151.978 721.047 150.246 733.339 C 149.481 738.769 148.639 744.176 147.765 749.588 C 147.734 749.783 136.287 748.685 133.959 748.662 z "
     transform="matrix(1 0 0 1 84.7092 -63.9199)"
     sodipodi:nodetypes="ccccccccccccccccccccccccccccccccccccccccccccccccccccccccccccccccccccccccccc">
  </path>

</svg>
