/* XPM */
static char * appicon_smallplaying_xpm[] = {
"48 48 16 1",
" 	c None",
".	c #000200",
"+	c #111310",
"@	c #1C1E1B",
"#	c #2B2C2A",
"$	c #3A3C39",
"%	c #40413F",
"&	c #4D4F4C",
"*	c #5C5E5B",
"=	c #6A6C69",
"-	c #6F716E",
";	c #7C7E7B",
">	c #9D9F9C",
",	c #C5B9B9",
"'	c #D3D5D2",
")	c #FCFFFB",
"                                                ",
"                                                ",
"                                                ",
"                                                ",
"                                                ",
"                                                ",
"                                                ",
"                                                ",
"                                                ",
"                                                ",
"                                                ",
"                                                ",
"                                                ",
"                                                ",
"                                                ",
" )))))))))))))))))))))))))))))))))))))))))))))) ",
"))#++++++++++++++++++++++++++++++++++++++++++@))",
")-............................................#)",
")*............................................#)",
")-............................................#)",
")-...............................+............#)",
")-..............................#;&...........#)",
")-......)'),))%..)'),))%..,))%..$;;=@.........#)",
")-......)>%)%%)..)>%)%%)..).%)..$;;;;$........#)",
")-......)..)..)..)..)..)..)..)..$;;;;;=+......#)",
")-......)..)..)..)..)..)..)..)..$;;;;;;;#.....#)",
")-......)..)..)..)..)..)..)..)..$;;;;;;&......#)",
")-......)..)..)..)..)..)..)..)..$;;;;=@.......#)",
")-......)..)..)..)..)..)..).%)..$;;;&.........#)",
")-......)..)..)..)..)..)..)))%..$;=#..........#)",
")-........................).....#&+...........#)",
")-........................)...................#)",
")-........................)...................#)",
")-............................................#)",
"))@+++++++++++++++++++++++++++++++++++++++++++))",
" )))))))))))))))))))))))))))))))))))))))))))))) ",
"                                                ",
"                                                ",
"                                                ",
"                                                ",
"                                                ",
"                                                ",
"                                                ",
"                                                ",
"                                                ",
"                                                ",
"                                                ",
"                                                "};
