/* XPM */
static char * appicon_xpm[] = {
"48 48 21 1",
" 	c None",
".	c #000000",
"+	c #010101",
"@	c #020202",
"#	c #030303",
"$	c #040404",
"%	c #202020",
"&	c #1B1B1B",
"*	c #080808",
"=	c #0B0B0B",
"-	c #070707",
";	c #242424",
">	c #222222",
",	c #1F1F1F",
"'	c #1A1A1A",
")	c #181818",
"!	c #1C1C1C",
"~	c #1D1D1D",
"{	c #111111",
"]	c #0E0E0E",
"^	c #050505",
"                                                ",
"     ...        ...        ...        ...       ",
"    .....      .....      .....      .....      ",
"   .......    .......    .......    .......     ",
"   .......    .......    .......    .......     ",
"   .......    .......    .......    .......     ",
"    .....      .....      .....      .....      ",
"     ...        ...        ...        ...       ",
"   ....... ............. ....... .............  ",
"   ....... ............. ....... .............  ",
"   ....... ............. ....... .............  ",
"   .......     .....     .......     ......     ",
"   .......     .....     .......     ......     ",
"   .......     .....     .......     ......     ",
"   .......     .....     .......     ......     ",
"    .....      .....      .....      .....      ",
"    .....     .......     .....     .......     ",
"    .....    .... ....    .....    .... ....    ",
"    .....    ...   ...    +@.@.    #$$   +..    ",
"   ....... %%&..   ..... @+@..++ **=-*   -++++  ",
"   ....... .....   ;>,.. ....... ')'!~   {]^$#  ",
"                                                ",
"                                                ",
"   ..........................................   ",
"   .                                        .   ",
"   .                                        .   ",
"   .                                        .   ",
"   .                                        .   ",
"   .                                        .   ",
"   .                                        .   ",
"   .                                        .   ",
"   .                                        .   ",
"   .                                        .   ",
"   .                                        .   ",
"   .                                        .   ",
"   .                                        .   ",
"   .                                        .   ",
"   .                                        .   ",
"   .                                        .   ",
"   .                                        .   ",
"   .                                        .   ",
"   .                                        .   ",
"   .                                        .   ",
"   .                                        .   ",
"   .                                        .   ",
"   ..........................................   ",
"                                                ",
"                                                "};
