/* XPM */
static char * dnd_xpm[] = {
"32 32 112 2",
"  	c None",
". 	c #838383",
"+ 	c #676767",
"@ 	c #C9C9C9",
"# 	c #494949",
"$ 	c #1C1C1C",
"% 	c #1D1D1D",
"& 	c #101010",
"* 	c #111111",
"= 	c #0E0E0E",
"- 	c #0A0A0A",
"; 	c #171717",
"> 	c #323232",
", 	c #575757",
"' 	c #686868",
") 	c #9E9E9E",
"! 	c #464646",
"~ 	c #2F2F2F",
"{ 	c #C5C5C5",
"] 	c #4F4F4F",
"^ 	c #303030",
"/ 	c #B5B5B5",
"( 	c #828282",
"_ 	c #8E8E8E",
": 	c #989898",
"< 	c #6F6F6F",
"[ 	c #7C7C7C",
"} 	c #D7D7D7",
"| 	c #B8B8B8",
"1 	c #F4F4F4",
"2 	c #262626",
"3 	c #858585",
"4 	c #222222",
"5 	c #393939",
"6 	c #FFFFFF",
"7 	c #C0C0C0",
"8 	c #D4D4D4",
"9 	c #A9A9A9",
"0 	c #525252",
"a 	c #1F1F1F",
"b 	c #EAEAEA",
"c 	c #797979",
"d 	c #505050",
"e 	c #424242",
"f 	c #919191",
"g 	c #232323",
"h 	c #181818",
"i 	c #7A7A7A",
"j 	c #363636",
"k 	c #2A2A2A",
"l 	c #848484",
"m 	c #6A6A6A",
"n 	c #5B5B5B",
"o 	c #A8A8A8",
"p 	c #3F3F3F",
"q 	c #9B9B9B",
"r 	c #595959",
"s 	c #343434",
"t 	c #282828",
"u 	c #3B3B3B",
"v 	c #9A9A9A",
"w 	c #434343",
"x 	c #4C4C4C",
"y 	c #5C5C5C",
"z 	c #808080",
"A 	c #191919",
"B 	c #727272",
"C 	c #353535",
"D 	c #636363",
"E 	c #4B4B4B",
"F 	c #2B2B2B",
"G 	c #5F5F5F",
"H 	c #121212",
"I 	c #313131",
"J 	c #454545",
"K 	c #606060",
"L 	c #0D0D0D",
"M 	c #404040",
"N 	c #616161",
"O 	c #373737",
"P 	c #3A3A3A",
"Q 	c #666666",
"R 	c #626262",
"S 	c #090909",
"T 	c #292929",
"U 	c #202020",
"V 	c #0B0B0B",
"W 	c #7D7D7D",
"X 	c #555555",
"Y 	c #1A1A1A",
"Z 	c #2E2E2E",
"` 	c #444444",
" .	c #939393",
"..	c #535353",
"+.	c #707070",
"@.	c #272727",
"#.	c #5E5E5E",
"$.	c #3C3C3C",
"%.	c #2D2D2D",
"&.	c #383838",
"*.	c #414141",
"=.	c #565656",
"-.	c #ABABAB",
";.	c #242424",
">.	c #6D6D6D",
",.	c #8D8D8D",
"'.	c #4E4E4E",
").	c #1B1B1B",
"!.	c #141414",
"~.	c #1E1E1E",
"{.	c #2C2C2C",
"].	c #656565",
". + @ # $ % & & * = = - - - - = ; > , ' ' ) ! ~ {               ",
"] ^ @ { / ( _ _ _ _ _ _ : _ _ < [ } } | | @ 1 . 2 3             ",
"4 5 @ 6 6 6 6 6 6 6 6 6 6 6 6 6 6 6 6 6 6 @ 7 8 9 $ 0           ",
"a $ b 6 6 6 6 6 6 6 6 6 6 6 6 6 6 6 6 6 6 c d b 6 6 e a f       ",
"g h 6 6 6 6 6 6 6 6 6 6 6 6 6 6 6 6 6 6 6 ) ' b 6 6 6 i j , @   ",
"k 2 6 6 6 6 6 6 6 6 6 6 6 6 6 6 6 6 6 6 6 l m 6 6 6 6 6 @ # n o ",
"p 5 6 6 6 6 6 6 6 6 6 6 @ ) 6 6 6 6 6 6 6 [ < b @ | | f f q ' r ",
"s t 6 6 6 6 6 6 6 6 6 6 l u 3 6 6 6 6 6 b v < r w x x ' ' c y z ",
"A 2 @ 6 6 6 6 6 6 6 6 6 l B a } 6 6 6 6 6 6 6 6 6 6 6 6 6 b C D ",
"= E @ 6 6 6 6 6 6 6 6 6 l | x F b 6 6 6 6 6 6 6 6 6 6 6 @ ) G d ",
"H I | 6 6 6 6 6 6 6 6 6 l | @ u J b 6 6 6 6 6 6 6 6 6 6 | ' K ! ",
"L ~ | 6 6 6 6 6 6 6 6 6 l | 6 6 o b 6 6 6 6 6 6 6 6 6 6 b M N x ",
"= O | 6 6 6 6 6 6 6 6 6 l | 6 6 6 6 6 6 6 6 6 6 6 6 6 6 b > 3 x ",
"- K | 6 6 6 6 6 6 6 6 6 v c 6 6 6 6 6 6 6 6 6 6 6 6 6 6 b P Q r ",
"L K | 6 6 6 6 6 6 6 6 6 l f 6 6 6 6 @ R @ 6 6 6 6 6 6 6 b 5 Q r ",
"S c | 6 6 6 6 6 6 6 6 6 < } 6 6 6 b ' T U | 6 6 6 6 6 6 b 5 r N ",
"V c | 6 6 6 6 6 6 6 6 6 < } 6 6 6 } F W > k 7 6 6 6 6 6 @ # X N ",
"L c | 6 6 6 6 6 6 6 6 6 N b 6 6 6 6 ) Y Z t 9 @ 6 6 6 6 @ p Q N ",
"= c | 6 6 6 6 6 6 b 6 b N 6 6 6 6 6 6 | l `  .o 6 6 6 6 @ 5 ..l ",
"a 0 | 6 6 6 6 6 6 v o | l 6 6 6 6 6 6 6 6 ) f b 6 6 6 6 @ 5 +.' ",
"@.J } 6 6 6 6 6 @ @ K c o 6 6 6 6 6 6 6 6 ) ) 6 6 6 6 6 @ > #.0 ",
"p 5 } 6 6 6 6 6 | c @.@.B 6 6 6 6 6 6 6 6 ) ) 6 6 6 6 6 | s I 3 ",
"J 5 } 6 6 6 6 6 W J O u $.6 6 6 6 6 6 6 6 ) ) 6 6 6 6 6 b w h @ ",
"J > } 6 6 6 6 6 6 #.w %.d b 6 6 6 6 6 6 6 ) ) o b 6 6 6 b ` k @ ",
"&.J | 6 6 6 6 6 6 o v $.o 6 6 6 6 6 6 6 6 ) ' b 6 6 6 6 6 R @.@ ",
"t W @ 6 6 6 6 6 6 6 b 6 6 6 6 6 6 6 6 6 6 K m 6 6 6 6 6 6 f j | ",
"*.f 6 6 6 6 6 6 6 6 6 6 6 6 6 6 6 6 6 6 6 =.-.6 6 6 6 6 6 c p | ",
"j 3 6 6 6 6 6 6 6 6 6 6 6 6 6 6 6 6 6 6 6 | @ 6 6 6 6 6 6 m 5 } ",
"J 9 6 6 6 6 6 6 6 6 6 6 6 6 6 6 6 6 6 6 6 6 6 6 6 6 6 6 6 m 5 } ",
"%.[ 6 6 6 6 6 6 6 6 6 6 6 6 6 6 6 6 6 6 6 6 6 6 6 6 6 6 b v # } ",
";.j ) l >.i 3 3 3 ) c G ' c c ,.v ,.G G c < ,.,.v v v | 9 c #.{ ",
"0 s ) l '.%.t %.%.g ).h h !.h ~.! u O O Z C @.{.;.d ]., d 5 2 d "};
