/* XPM */
static char * quit_xpm[] = {
"15 15 16 1",
" 	c None",
".	c #0D0D0D",
"+	c #7E7E7E",
"@	c #303030",
"#	c #626262",
"$	c #888888",
"%	c #969696",
"&	c #3C3C3C",
"*	c #9E9E9E",
"=	c #A2A2A2",
"-	c #232323",
";	c #424242",
">	c #6F6F6F",
",	c #B6B6B6",
"'	c #7A7A7A",
")	c #4D4D4D",
"    ,>)&)>,    ",
"  ,#.@#>#@.>   ",
" ,;-%     %-;  ",
" #-,  *$   ,-> ",
",.%   +)    %.,",
">&    ')     @'",
";>    +)     #)",
"&'    $;     >;",
")>    $;     #)",
">&    $;     @+",
",.=   %)    *.,",
" #@,       ,-' ",
"  )-=     *-)  ",
"   >.&>'>&.>   ",
"    ,');)+,    "};
