/* XPM */
static char * up_xpm[] = {
"11 6 2 1",
" 	c None",
".	c #808080",
"     .     ",
"    ...    ",
"   .....   ",
"  .......  ",
" ......... ",
"..........."};
