/* XPM */
static char * icon_2006_08_15__playing__48_xpm[] = {
"48 48 16 1",
" 	c None",
".	c #000200",
"+	c #111310",
"@	c #1B1D1B",
"#	c #2E302D",
"$	c #3D3F3C",
"%	c #4D4F4C",
"&	c #5C5E5B",
"*	c #6F716E",
"=	c #7B7D7A",
"-	c #9D9F9C",
";	c #F391A7",
">	c #C5B9B9",
",	c #D3D5D2",
"'	c #DDDFDC",
")	c #FCFFFB",
" )))))))))))))))))))))))))))))))))))))))))))))) ",
"))#++++++++++++++++++++++++++++++++++++++++++@))",
")*............................................#)",
")&............................................#)",
")*............................................#)",
")*...............................+............#)",
")*..............................#=%...........#)",
")*......),)>))$..),)>))$..>))$..$==*@.........#)",
")*......)-$)$$)..)-$)$$)..).$)..$====$........#)",
")*......)..)..)..)..)..)..)..)..$=====*+......#)",
")*......)..)..)..)..)..)..)..)..$=======#.....#)",
")*......)..)..)..)..)..)..)..)..$======%......#)",
")*......)..)..)..)..)..)..)..)..$====*@.......#)",
")*......)..)..)..)..)..)..).$)..$===%.........#)",
")*......)..)..)..)..)..)..)))$..$=*#..........#)",
")*........................).....#%+...........#)",
")*........................)...................#)",
")*........................)...................#)",
")*............................................#)",
")*.##########################################+#)",
")*+''''''''''''''''''''''''''''''''''''''''''&#)",
")*+''''''''''''''''''''''''''''''''''''''''''&#)",
")*+'''>>>';;;;;;;;;;;;;;;;;;;;;;;;;;;;;;;''''&#)",
")*+'''>>>';;;;;;;;;;;;;;;;;;;;;;;;;;;;;;;''''&#)",
")*+'''>>>''''''''''''''''''''''''''''''''''''&#)",
")*+'''>>>';;;;;;;;;;;;;;;;;;;;;;;;;;;;;;;''''&#)",
")*+'''>>>';;;;;;;;;;;;;;;;;;;;;;;;;;;;;;;''''&#)",
")*+'''>>>''''''''''''''''''''''''''''''''''''&#)",
")*+'''>>>';;;;;;;;;;;;;;;;;;;;;;;;;;;;;;;''''&#)",
")*+'''>>>';;;;;;;;;;;;;;;;;;;;;;;;;;;;;;;''''&#)",
")*+'''>>>''''''''''''''''''''''''''''''''''''&#)",
")*+'''>>>';;;;;;;;;;;;;;;;;;;;;;;;;;;;;;;''''&#)",
")*+'''>>>';;;;;;;;;;;;;;;;;;;;;;;;;;;;;;;''''&#)",
")*+'''>>>''''''''''''''''''''''''''''''''''''&#)",
")*+'''>>>';;;;;;;;;;;;;;;;;;;;;;;;;;;;;;;''''&#)",
")*+'''>>>';;;;;;;;;;;;;;;;;;;;;;;;;;;;;;;''''&#)",
")*+'''>>>''''''''''''''''''''''''''''''''''''&#)",
")*+'''>>>';;;;;;;;;;;;;;;;;;;;;;;;;;;;;;;''''&#)",
")*+'''>>>';;;;;;;;;;;;;;;;;;;;;;;;;;;;;;;''''&#)",
")*+'''>>>''''''''''''''''''''''''''''''''''''&#)",
")*+'''>>>';;;;;;;;;;;;;;;;;;;;;;;;;;;;;;;''''&#)",
")*+'''>>>';;;;;;;;;;;;;;;;;;;;;;;;;;;;;;;''''&#)",
")*+''''''''''''''''''''''''''''''''''''''''''&#)",
")&+''''''''''''''''''''''''''''''''''''''''''&#)",
")&+''''''''''''''''''''''''''''''''''''''''''&@)",
")&.==========================================##)",
"))@+++++++++++++++++++++++++++++++++++++++++++))",
" )))))))))))))))))))))))))))))))))))))))))))))) "};
