/* XPM */
static char * icon_2006_08_15__small__48_xpm[] = {
"48 48 16 1",
" 	c None",
".	c #000100",
"+	c #111310",
"@	c #1B1C1A",
"#	c #2A2C2A",
"$	c #323432",
"%	c #3F413F",
"&	c #5D5E5C",
"*	c #6F716E",
"=	c #7A7C79",
"-	c #9D9F9C",
";	c #F391A7",
">	c #C4B9B9",
",	c #D3D5D2",
"'	c #DDDFDC",
")	c #FDFFFC",
"                                                ",
"                                                ",
"                                                ",
"                                                ",
"                                                ",
"                                                ",
"                                                ",
"                                                ",
"                                                ",
"                                                ",
"                                                ",
"                                                ",
"                                                ",
"                                                ",
"                                                ",
" )))))))))))))))))))))))))))))))))))))))))))))) ",
"))#++++++++++++++++++++++++++++++++++++++++++@))",
")*............................................#)",
")&............................................#)",
")*............................................#)",
")*...............................#............#)",
")*..............................&)-...........#)",
")*......),)>))%..),)>))%..>))%..*)),$.........#)",
")*......)-%)%%)..)-%)%%)..).%)..*))))=........#)",
")*......)..)..)..)..)..)..)..)..=))))),#......#)",
")*......)..)..)..)..)..)..)..)..=)))))))#.....#)",
")*......)..)..)..)..)..)..)..)..=))))))-......#)",
")*......)..)..)..)..)..)..)..)..=))))'%.......#)",
")*......)..)..)..)..)..)..).%)..=)))-+........#)",
")*......)..)..)..)..)..)..)))%..=)'&..........#)",
")*........................).....&-@...........#)",
")*........................)...................#)",
")*........................)...................#)",
")*............................................#)",
"))@+++++++++++++++++++++++++++++++++++++++++++))",
" )))))))))))))))))))))))))))))))))))))))))))))) ",
"                                                ",
"                                                ",
"                                                ",
"                                                ",
"                                                ",
"                                                ",
"                                                ",
"                                                ",
"                                                ",
"                                                ",
"                                                ",
"                                                "};
